#N canvas 0 30 1351 717 10;
#X obj 474 195 inlet~;
#X obj 481 349 outlet~;
#X obj 538 179 inlet;
#X msg 538 203 \$1 20;
#X obj 477 300 *~;
#X obj 538 230 line \$1 10;
#X obj 494 276 osc~ \$1;
#X connect 0 0 4 0;
#X connect 2 0 3 0;
#X connect 3 0 5 0;
#X connect 4 0 1 0;
#X connect 5 0 6 0;
#X connect 6 0 4 1;
